<?xml version="1.0" standalone="no"?>
<!DOCTYPE svg PUBLIC "-//W3C//DTD SVG 20010904//EN"
 "http://www.w3.org/TR/2001/REC-SVG-20010904/DTD/svg10.dtd">
<svg version="1.0" xmlns="http://www.w3.org/2000/svg"
 width="960.000000pt" height="960.000000pt" viewBox="0 0 960.000000 960.000000"
 preserveAspectRatio="xMidYMid meet">

<g transform="translate(0.000000,960.000000) scale(0.100000,-0.100000)"
fill="#000000" stroke="none">
<path d="M0 4800 l0 -4800 4800 0 4800 0 0 2440 c0 1620 -3 2440 -10 2440 -5
0 -10 -22 -10 -48 0 -26 -6 -54 -12 -60 -7 -7 -11 -28 -9 -47 2 -25 -2 -37
-13 -41 -9 -4 -16 -18 -16 -34 0 -16 -5 -32 -10 -35 -5 -3 -10 -19 -10 -36 0
-16 -4 -29 -10 -29 -5 0 -10 -13 -10 -29 0 -17 -4 -33 -10 -36 -5 -3 -10 -19
-10 -35 0 -15 -7 -30 -15 -34 -8 -3 -15 -15 -15 -26 0 -11 -4 -20 -10 -20 -5
0 -10 -9 -10 -20 0 -11 -4 -20 -10 -20 -5 0 -10 -9 -10 -19 0 -11 -4 -23 -10
-26 -5 -3 -10 -15 -10 -26 0 -10 -4 -19 -10 -19 -5 0 -10 -9 -10 -20 0 -11 -7
-23 -15 -26 -8 -4 -15 -15 -15 -25 0 -10 -9 -24 -20 -31 -11 -7 -20 -20 -20
-29 0 -8 -11 -26 -25 -39 -14 -13 -25 -29 -25 -35 0 -7 -9 -20 -20 -30 -11
-10 -20 -24 -20 -32 0 -7 -20 -33 -45 -56 -25 -24 -45 -49 -45 -56 0 -16 -247
-266 -263 -266 -7 0 -34 -21 -62 -47 -27 -26 -52 -45 -56 -43 -3 3 -17 -7 -29
-20 -13 -14 -29 -25 -35 -25 -7 0 -20 -9 -30 -20 -10 -11 -23 -20 -30 -20 -6
0 -22 -11 -35 -25 -13 -14 -32 -25 -42 -25 -10 0 -18 -4 -18 -10 0 -5 -8 -10
-17 -11 -10 0 -31 -9 -48 -19 -52 -32 -88 -50 -102 -50 -7 0 -13 -4 -13 -10 0
-5 -9 -10 -20 -10 -11 0 -20 -4 -20 -10 0 -5 -11 -10 -25 -10 -13 0 -44 -11
-69 -25 -25 -14 -54 -25 -65 -25 -11 0 -23 -4 -26 -10 -3 -5 -24 -10 -46 -10
-21 0 -39 -4 -39 -10 0 -5 -18 -10 -39 -10 -22 0 -43 -4 -46 -10 -3 -5 -28
-10 -55 -10 -27 0 -52 -4 -55 -10 -3 -5 -37 -10 -74 -10 -49 0 -72 -4 -81 -15
-19 -22 -440 -22 -474 0 -16 11 -43 15 -86 13 -44 -2 -65 1 -68 10 -2 7 -23
12 -52 12 -27 0 -52 5 -55 10 -3 6 -24 10 -45 10 -21 0 -42 5 -45 10 -3 5 -19
10 -36 10 -16 0 -29 5 -29 10 0 6 -13 10 -29 10 -16 0 -34 7 -41 15 -7 8 -25
15 -41 15 -16 0 -29 5 -29 10 0 6 -9 10 -20 10 -11 0 -20 5 -20 10 0 6 -13 10
-29 10 -17 0 -33 5 -36 10 -3 5 -14 10 -25 10 -10 0 -21 7 -24 16 -3 8 -10 13
-15 10 -5 -4 -16 1 -24 9 -9 8 -23 15 -31 15 -9 0 -16 4 -16 9 0 5 -16 16 -35
25 -19 9 -37 21 -40 26 -4 6 -10 8 -14 5 -5 -2 -19 7 -31 20 -13 14 -31 25
-40 25 -8 0 -22 9 -30 20 -8 11 -22 20 -30 20 -9 0 -27 11 -40 25 -13 14 -28
25 -35 25 -6 0 -40 29 -75 65 -35 36 -69 65 -75 65 -13 0 -115 102 -115 116 0
5 -29 39 -65 74 -36 35 -65 71 -65 79 0 7 -16 27 -35 44 -19 16 -35 37 -35 46
0 9 -9 23 -20 31 -11 8 -20 22 -20 30 0 9 -11 27 -25 40 -13 12 -22 26 -20 31
3 4 1 10 -4 14 -13 7 -41 64 -41 82 0 7 -4 13 -10 13 -5 0 -10 8 -11 18 0 9
-9 31 -19 47 -32 52 -50 88 -50 102 0 7 -4 13 -10 13 -5 0 -10 13 -10 29 0 17
-4 33 -10 36 -5 3 -10 17 -10 29 0 13 -7 29 -16 37 -10 8 -13 21 -9 36 4 16 1
25 -10 29 -8 4 -15 18 -15 34 0 16 -4 32 -10 35 -6 3 -10 24 -10 45 0 21 -4
42 -10 45 -5 3 -10 32 -10 64 0 39 -5 63 -14 71 -11 9 -15 36 -14 111 1 63 -3
104 -11 112 -17 17 -15 213 3 220 10 4 13 28 11 106 -1 75 1 104 11 112 9 8
14 34 14 75 0 36 4 64 10 64 6 0 10 18 10 39 0 22 4 43 10 46 5 3 10 23 10 44
0 21 6 44 14 50 8 7 12 20 9 30 -2 9 3 23 11 30 9 8 16 26 16 42 0 16 5 29 10
29 6 0 10 9 10 19 0 11 5 23 10 26 6 3 10 19 10 36 0 16 5 29 10 29 6 0 10 8
10 19 0 10 7 24 15 31 8 7 15 19 15 26 0 8 5 14 10 14 6 0 10 6 10 13 0 21 27
72 49 91 11 10 17 24 14 32 -3 8 2 17 11 20 9 3 16 15 16 25 0 10 4 19 9 19 5
0 16 15 24 33 9 17 29 45 46 61 17 17 31 35 31 41 0 6 12 22 26 36 14 13 29
32 33 42 9 24 280 297 295 297 7 0 27 16 46 35 19 19 39 35 45 35 6 0 24 14
40 30 16 17 34 30 40 30 6 0 22 11 35 25 13 14 32 25 42 25 10 0 18 5 18 10 0
6 8 10 18 10 11 0 27 9 37 20 19 21 111 70 132 70 7 0 13 5 13 10 0 6 13 10
29 10 16 0 34 7 41 15 7 8 16 13 20 10 4 -3 13 2 20 10 7 8 25 15 41 15 16 0
29 5 29 10 0 6 9 10 19 10 11 0 23 5 26 10 3 6 21 10 40 10 19 0 37 5 40 10 3
6 19 10 34 10 16 0 34 7 41 15 8 10 30 15 61 15 26 0 51 5 54 10 3 6 28 10 56
10 27 0 49 5 49 10 0 6 118 10 335 10 217 0 335 -4 335 -10 0 -5 22 -10 49
-10 28 0 53 -4 56 -10 3 -5 23 -10 44 -10 22 0 44 -6 51 -15 7 -8 27 -15 46
-15 18 0 36 -4 39 -10 3 -5 19 -10 35 -10 16 0 32 -4 35 -10 3 -5 19 -10 36
-10 16 0 29 -4 29 -10 0 -5 9 -10 19 -10 10 0 21 -7 25 -15 3 -8 17 -15 30
-15 14 0 41 -9 61 -20 20 -11 42 -20 50 -20 8 0 15 -4 15 -10 0 -5 7 -10 16
-10 8 0 22 -7 31 -15 8 -8 18 -13 23 -10 4 3 13 -2 20 -10 7 -8 18 -15 25 -15
6 0 20 -9 30 -20 10 -11 26 -20 37 -20 10 0 18 -4 18 -10 0 -5 7 -10 15 -10 9
0 26 -11 39 -25 13 -14 28 -25 35 -25 6 0 32 -20 59 -45 26 -25 52 -45 57 -45
14 0 355 -343 355 -357 0 -6 14 -24 30 -40 17 -15 30 -34 30 -42 0 -7 11 -24
25 -37 14 -13 25 -29 25 -37 0 -8 7 -20 15 -27 17 -14 45 -67 45 -85 0 -7 7
-15 15 -19 8 -3 15 -14 15 -23 0 -10 9 -25 20 -33 11 -8 20 -22 20 -32 0 -10
5 -18 10 -18 6 0 10 -11 10 -23 0 -26 25 -83 41 -92 5 -4 9 -19 9 -36 0 -16 5
-29 10 -29 6 0 10 -9 10 -19 0 -11 5 -23 10 -26 6 -3 10 -19 10 -36 0 -16 5
-29 10 -29 6 0 10 -17 10 -39 0 -23 6 -44 16 -52 10 -8 14 -25 12 -47 -2 -22
2 -37 10 -40 7 -2 12 -22 12 -48 0 -24 5 -44 10 -44 7 0 10 663 10 1970 l0
1970 -4800 0 -4800 0 0 -4800z m2375 1412 l40 -8 -2 -207 c-2 -223 -9 -257
-53 -257 -17 0 -20 7 -20 48 0 65 -27 162 -52 189 -30 33 -100 43 -287 43
-145 0 -170 -2 -182 -17 -11 -12 -14 -57 -14 -187 -1 -94 -5 -219 -9 -277 -5
-59 -6 -127 -2 -152 l7 -45 92 -6 c51 -3 130 -8 176 -12 139 -10 189 18 230
133 12 35 23 49 38 51 19 3 23 -3 29 -45 9 -59 -15 -511 -28 -536 -6 -11 -18
-17 -31 -15 -18 3 -23 13 -32 73 -15 95 -36 131 -83 144 -40 12 -247 13 -327
3 l-50 -7 -2 -45 c-2 -25 -10 -87 -19 -138 -10 -57 -13 -111 -9 -138 3 -25 7
-105 8 -177 3 -175 14 -198 127 -259 44 -24 80 -48 80 -54 0 -17 -49 -35 -84
-29 -17 2 -106 9 -199 15 -146 10 -170 9 -189 -4 -35 -24 -108 -15 -108 14 0
5 22 34 48 64 87 99 87 100 89 581 1 232 -2 441 -7 467 -7 35 -6 57 5 88 24
69 28 157 10 250 -9 47 -20 120 -24 163 -10 95 -51 184 -96 207 -37 19 -46 30
-43 55 3 19 13 20 228 25 362 9 702 9 745 2z m2549 2 l46 -7 -1 -196 c0 -212
-9 -264 -45 -269 -19 -3 -22 4 -32 82 -13 99 -39 156 -79 176 -20 10 -83 15
-230 18 l-203 4 -11 -29 c-10 -24 -14 -130 -21 -554 -1 -25 2 -57 5 -71 7 -25
10 -26 99 -32 51 -4 129 -9 173 -12 46 -3 95 -1 115 5 49 14 89 60 111 123 14
44 22 54 43 56 26 3 26 2 27 -65 2 -110 -1 -199 -11 -348 -13 -178 -15 -185
-44 -185 -21 0 -24 6 -35 74 -15 91 -42 136 -91 149 -52 14 -345 4 -364 -12
-11 -9 -16 -31 -16 -70 0 -31 -7 -92 -15 -136 -9 -43 -12 -86 -8 -95 3 -8 7
-82 7 -165 1 -141 3 -153 26 -195 24 -43 46 -59 161 -123 l34 -19 -24 -19
c-18 -15 -34 -18 -65 -14 -23 3 -114 10 -204 16 -148 9 -165 9 -192 -7 -23
-14 -37 -16 -66 -8 -21 5 -39 14 -41 20 -2 6 19 37 48 68 90 99 90 100 89 656
0 292 3 490 9 515 15 59 13 170 -5 250 -9 39 -19 104 -23 145 -11 105 -64 200
-111 200 -16 0 -20 7 -20 35 l0 35 223 3 c526 6 697 7 741 1z m-1748 -1149
c15 -25 45 -57 66 -72 22 -14 38 -32 36 -39 -2 -6 -23 -27 -48 -46 -25 -19
-54 -48 -65 -66 -11 -17 -23 -31 -26 -32 -3 0 -14 18 -24 39 -20 45 -49 76
-82 86 -32 9 -29 26 12 58 19 15 46 48 61 72 14 25 29 45 34 45 4 0 20 -20 36
-45z m2559 -1505 c126 -126 226 -233 222 -237 -4 -4 -359 -360 -789 -790 -720
-720 -785 -783 -815 -783 -30 0 -54 21 -238 205 -146 146 -205 211 -205 228 0
16 208 230 793 815 435 435 794 792 797 792 3 0 108 -103 235 -230z"/>
<path d="M7200 7030 c0 -6 -28 -10 -65 -10 -37 0 -65 -4 -65 -10 0 -5 -17 -10
-39 -10 -22 0 -44 -6 -51 -15 -7 -9 -29 -15 -51 -15 -21 0 -41 -4 -44 -10 -3
-5 -19 -10 -36 -10 -16 0 -29 -4 -29 -10 0 -5 -9 -10 -20 -10 -11 0 -20 -4
-20 -10 0 -5 -13 -10 -29 -10 -17 0 -32 -4 -36 -9 -7 -13 -64 -41 -82 -41 -7
0 -13 -4 -13 -10 0 -5 -8 -10 -19 -10 -10 0 -25 -7 -32 -16 -7 -9 -22 -20 -34
-25 -34 -16 -64 -35 -83 -52 -10 -10 -24 -17 -31 -17 -6 0 -25 -16 -42 -35
-17 -19 -37 -35 -45 -35 -19 0 -294 -273 -294 -291 0 -8 -13 -27 -30 -42 -16
-16 -30 -35 -30 -42 0 -8 -11 -22 -25 -33 -14 -11 -25 -24 -25 -29 0 -17 -29
-69 -49 -87 -11 -10 -17 -24 -14 -32 3 -8 -2 -17 -11 -20 -9 -3 -16 -15 -16
-25 0 -10 -4 -19 -10 -19 -5 0 -10 -16 -10 -35 0 -19 -4 -35 -10 -35 -5 0 -10
-9 -10 -20 0 -11 -4 -20 -10 -20 -5 0 -10 -13 -10 -29 0 -16 -7 -34 -16 -42
-8 -7 -13 -21 -11 -30 3 -10 -1 -23 -9 -30 -8 -6 -14 -24 -14 -40 0 -16 -4
-29 -10 -29 -5 0 -10 -20 -10 -45 0 -25 -4 -45 -10 -45 -6 0 -10 -28 -10 -64
0 -37 -5 -66 -11 -68 -12 -4 -19 -418 -6 -418 4 0 7 5 7 10 0 23 27 7 45 -26
11 -20 41 -55 67 -77 27 -22 48 -44 48 -48 0 -5 -18 -18 -39 -29 -51 -25 -99
-86 -83 -102 7 -7 12 -27 12 -46 0 -18 6 -40 14 -48 8 -7 12 -22 9 -32 -2 -10
3 -24 11 -31 9 -8 16 -24 16 -37 0 -12 5 -26 10 -29 6 -3 10 -15 10 -26 0 -10
5 -19 10 -19 6 0 10 -8 11 -17 0 -10 9 -31 19 -48 32 -52 50 -88 50 -102 0 -7
5 -13 10 -13 6 0 10 -9 10 -20 0 -11 9 -25 20 -32 11 -7 20 -20 20 -29 0 -8
11 -26 25 -39 14 -13 25 -28 25 -35 0 -6 25 -35 55 -65 30 -30 55 -60 55 -66
0 -14 134 -146 158 -156 9 -3 35 -24 57 -47 21 -23 44 -41 50 -41 6 0 22 -11
35 -25 13 -14 29 -25 35 -25 7 0 20 -9 30 -20 10 -11 26 -20 37 -20 10 0 18
-4 18 -9 0 -5 15 -16 33 -25 17 -9 46 -25 62 -36 17 -10 38 -19 48 -19 9 -1
17 -5 17 -11 0 -5 11 -10 25 -10 25 0 55 -13 87 -39 10 -7 24 -11 32 -8 9 4
22 0 30 -8 8 -8 26 -15 40 -15 14 0 28 -4 31 -10 3 -5 24 -10 46 -10 21 0 39
-4 39 -10 0 -5 22 -10 49 -10 28 0 53 -4 56 -10 3 -5 39 -10 79 -10 53 0 77
-4 86 -15 19 -22 272 -22 291 1 10 12 29 15 85 12 48 -2 78 2 86 10 6 6 33 12
59 12 26 0 51 5 54 10 3 6 19 10 36 10 16 0 29 5 29 10 0 6 20 10 44 10 30 0
46 5 50 15 3 8 11 12 19 9 8 -3 20 2 27 11 7 8 21 15 31 15 10 0 34 9 54 20
20 11 42 20 50 20 8 0 15 5 15 10 0 6 8 10 19 10 10 0 24 7 31 15 7 8 16 13
20 10 4 -3 13 2 20 10 7 8 18 15 25 15 6 0 20 9 30 20 10 11 25 20 33 20 8 0
23 11 34 25 11 14 26 25 35 25 8 0 28 14 43 30 15 17 34 30 42 30 16 0 268
251 268 267 0 7 16 27 35 46 19 19 35 40 35 48 0 8 9 21 20 29 11 8 20 22 20
31 0 9 9 24 20 34 22 20 50 71 50 92 0 7 5 13 10 13 6 0 10 9 10 20 0 11 5 20
10 20 6 0 10 9 10 19 0 11 4 22 9 26 16 9 41 66 41 92 0 12 5 23 10 23 6 0 10
13 10 29 0 17 5 33 10 36 6 3 10 19 10 35 0 16 7 30 16 34 13 5 15 15 11 41
-4 23 -1 38 9 46 8 7 14 30 14 60 0 26 5 51 10 54 6 3 10 48 10 101 0 56 4 94
10 94 6 0 10 40 10 99 0 56 -4 103 -10 106 -6 3 -10 48 -10 101 0 56 -4 94
-10 94 -5 0 -10 24 -10 54 0 38 -4 56 -14 59 -11 4 -13 16 -9 39 3 24 0 38
-11 47 -9 7 -16 26 -16 42 0 16 -4 29 -10 29 -5 0 -10 13 -10 29 0 17 -4 33
-10 36 -5 3 -10 15 -10 26 0 10 -4 19 -10 19 -5 0 -10 9 -10 20 0 11 -7 23
-16 27 -10 4 -14 13 -10 28 4 15 -2 29 -19 45 -14 13 -25 32 -25 42 0 10 -4
18 -10 18 -5 0 -10 9 -10 19 0 10 -7 21 -15 25 -8 3 -12 12 -9 19 3 8 -6 23
-20 35 -14 11 -26 26 -26 34 0 8 -9 23 -20 33 -11 10 -20 23 -20 29 0 7 -25
36 -55 66 -30 30 -55 59 -55 65 0 15 -99 115 -113 115 -7 0 -37 25 -67 55 -30
30 -59 55 -65 55 -6 0 -26 16 -45 35 -19 19 -42 35 -52 35 -10 0 -18 5 -18 10
0 6 -7 10 -16 10 -9 0 -27 11 -40 25 -13 14 -27 25 -33 25 -5 0 -39 16 -75 35
-37 19 -75 39 -86 45 -11 5 -29 15 -40 20 -11 6 -29 10 -39 10 -11 0 -23 5
-26 10 -3 6 -19 10 -36 10 -16 0 -29 5 -29 10 0 6 -13 10 -29 10 -16 0 -34 7
-42 16 -8 10 -26 14 -56 13 -24 -2 -48 2 -55 9 -7 7 -38 12 -69 12 -32 0 -61
5 -64 10 -4 6 -93 10 -236 10 -146 0 -229 -4 -229 -10z m-258 -417 c28 -13 59
-91 73 -182 11 -65 69 -257 126 -415 28 -76 72 -214 98 -305 48 -163 48 -167
34 -211 -9 -25 -18 -64 -20 -87 -5 -39 -3 -42 30 -54 32 -11 36 -18 53 -78 9
-36 30 -97 45 -136 15 -38 31 -87 34 -108 4 -21 12 -36 19 -34 17 5 66 134 77
200 5 32 25 104 44 160 18 56 37 118 40 137 4 19 21 76 37 125 16 50 35 137
43 195 16 116 24 150 49 199 10 18 26 74 37 124 52 242 111 461 127 473 13 10
78 12 261 10 223 -3 245 -5 258 -21 22 -32 15 -41 -62 -79 -43 -21 -83 -49
-96 -67 -27 -38 -35 -96 -20 -153 9 -35 8 -52 -4 -85 -11 -32 -14 -109 -15
-348 -1 -260 -4 -518 -10 -1023 -2 -157 13 -334 32 -362 9 -14 51 -42 92 -63
41 -20 77 -42 79 -49 3 -7 0 -24 -7 -37 -13 -26 -7 -26 -216 -20 -58 1 -175
-2 -260 -9 -161 -11 -230 -4 -230 24 0 53 13 74 55 91 48 18 119 89 140 138
10 25 11 113 5 427 -4 217 -3 447 1 510 11 145 -10 464 -29 445 -15 -15 -137
-453 -146 -525 -4 -30 -23 -100 -43 -155 -24 -68 -38 -129 -44 -190 -4 -51
-23 -143 -43 -210 -19 -66 -40 -154 -46 -195 -32 -199 -71 -299 -125 -318 -17
-7 -45 -12 -62 -12 -39 0 -51 26 -98 219 -20 79 -47 165 -60 192 -20 38 -25
64 -25 122 0 64 -4 79 -30 120 -21 33 -30 60 -30 90 -1 64 -18 127 -50 177
-20 32 -36 82 -55 170 -14 69 -41 175 -60 235 -18 61 -39 130 -45 155 -7 25
-20 61 -30 80 -10 19 -24 59 -31 88 -19 86 -32 49 -31 -85 1 -65 3 -309 5
-543 5 -458 26 -809 52 -859 8 -16 46 -49 90 -75 65 -41 75 -51 75 -76 0 -18
-7 -33 -17 -38 -22 -12 -490 -13 -520 -1 -24 9 -37 40 -29 67 4 10 27 26 55
36 115 41 139 104 152 406 6 118 13 263 15 322 4 68 0 153 -10 235 -11 91 -16
215 -15 433 0 402 -10 549 -43 621 -34 74 -57 99 -98 108 -29 6 -36 12 -38 36
-6 53 10 57 233 54 136 -2 208 -7 227 -16z"/>
</g>
</svg>
